# xmcd CD database file
#
# Track frame offsets:
#	150
#	19647
#	44345
#	64965
#	81565
#	101100
#	118082
#	135502
#	158015
#	175562
#	193722
#	207920
#
# Disc length: 2979 seconds
#
# Revision: 2
# Processed by: cddbd v1.5.1PL0 Copyright (c) Steve Scherf et al.
# Submitted via: CDex 1.51
#
DISCID=a30ba10c
DTITLE=Percy Strother - It's my time
DYEAR=1997
DGENRE=Blues
TTITLE0=Get out of my house
TTITLE1=I tried so hard to fake love
TTITLE2=I'm doing fine without you baby
TTITLE3=She gives me good loving all the time
TTITLE4=Don't let your so lalled friends come between you and me
TTITLE5=Joy to my life
TTITLE6=He don't realise the woman he's got
TTITLE7=It's my time baby
TTITLE8=Tonight is my night baby
TTITLE9=Ain't nobody take your place
TTITLE10=I can't take you back this time
TTITLE11=I don't cheat on my woman
EXTD=YEAR: 1997
EXTT0=
EXTT1=
EXTT2=
EXTT3=
EXTT4=
EXTT5=
EXTT6=
EXTT7=
EXTT8=
EXTT9=
EXTT10=
EXTT11=
PLAYORDER=
